#!OML:ASF H:\Not Pregnant\Project 1\Capture day 1\Session 1\non-pregnant.ASF
:FULLY-SPECIFIED
:DEGREES
528
root 7.93103 15.7051 39.1072 108.798 -83.0341 -95.9006
lowerback -9.81017 2.49168 4.84393
upperback -8.93246 2.57517 0.455823
thorax -3.65098 0.871257 -2.05256
lowerneck 20.2858 -8.54505 -31.8987
upperneck -4.90056 -19.9434 40.8224
head 3.48536 -12.6417 20.82
rclavicle -6.4605e-015 -1.98785e-015
rhumerus -45.6224 -24.632 -73.3506
rradius 20.173
rwrist 28.7742
rhand -12.2123 -6.893
rfingers 7.12502
rthumb 13.8524 -36.4117
lclavicle -6.4605e-015 -1.98785e-015
lhumerus -44.9879 -16.0766 104.93
lradius 35.1357
lwrist 27.3019
lhand -2.29809 -9.78314
lfingers 7.12502
lthumb 23.3875 18.8158
rfemur -26.8845 -8.45825 27.3704
rtibia 28.8578
rfoot -14.1514 32.4357
rtoes 5.03728
lfemur -17.5835 9.26021 -16.5289
ltibia 28.6345
lfoot -18.5597 16.2403
ltoes -25.8511
529
root 7.92864 15.7034 39.107 109.72 -83.0798 -96.9048
lowerback -9.75591 2.45422 4.776
upperback -8.93567 2.53341 0.478839
thorax -3.69011 0.853424 -1.99558
lowerneck 20.1853 -8.507 -31.9612
upperneck -4.83588 -19.8794 40.7683
head 3.49151 -12.5936 20.8063
rclavicle 9.93923e-015 3.18055e-015
rhumerus -45.7271 -24.3334 -73.7635
rradius 20.5056
rwrist 28.9159
rhand -8.76085 -5.38324
rfingers 7.12502
rthumb 17.1766 -34.644
lclavicle 9.93923e-015 3.18055e-015
lhumerus -45.3942 -17.8037 106.051
lradius 35.4628
lwrist 26.1923
lhand 0.631768 -10.263
lfingers 7.12502
lthumb 26.1954 17.9494
rfemur -26.8428 -8.43719 27.2882
rtibia 28.9386
rfoot -14.1769 32.5085
rtoes 5.06327
lfemur -17.4383 9.11975 -16.5941
ltibia 28.5917
lfoot -18.5111 16.484
ltoes -25.8829
530
root 7.92612 15.7013 39.1089 110.804 -83.1327 -98.0824
lowerback -9.69201 2.42121 4.72354
upperback -8.93628 2.49719 0.491613
thorax -3.73036 0.837445 -1.9577
lowerneck 20.0883 -8.46491 -32.0096
upperneck -4.77359 -19.8049 40.711
head 3.48944 -12.5403 20.7909
rclavicle 2.18663e-015 -1.27222e-014
rhumerus -45.716 -23.8977 -74.1707
rradius 20.8737
rwrist 28.835
rhand -5.55735 -4.10271
rfingers 7.12502
rthumb 20.2578 -33.0663
lclavicle 2.18663e-015 -1.27222e-014
lhumerus -45.8611 -19.5546 107.156
lradius 35.8865
lwrist 25.4033
lhand 3.30174 -10.7961
lfingers 7.12502
lthumb 28.7488 17.0106
rfemur -26.7937 -8.40904 27.1775
rtibia 29.0216
rfoot -14.2015 32.5868
rtoes 5.07175
lfemur -17.2778 8.94534 -16.6836
ltibia 28.549
lfoot -18.4654 16.7665
ltoes -25.8687
531
root 7.92204 15.6984 39.1139 111.992 -83.1676 -99.3862
lowerback -9.63233 2.39442 4.72054
upperback -8.92566 2.466 0.503753
thorax -3.75437 0.822193 -1.94732
lowerneck 19.9944 -8.41845 -32.0471
upperneck -4.7118 -19.7203 40.6478
head 3.47978 -12.4815 20.7728
rclavicle -7.55382e-015 -2.38542e-015
rhumerus -45.5664 -23.2649 -74.6328
rradius 21.2216
rwrist 28.539
rhand -3.0498 -3.13515
rfingers 7.12502
rthumb 22.6662 -31.8241
lclavicle -7.55382e-015 -2.38542e-015
lhumerus -46.3856 -21.3004 108.257
lradius 36.3874
lwrist 24.9144
lhand 5.6056 -11.3026
lfingers 7.12502
lthumb 30.9474 16.1089
rfemur -26.7205 -8.41491 27.065
rtibia 29.1002
rfoot -14.2032 32.7274
rtoes 5.1345
lfemur -17.085 8.6892 -16.7725
ltibia 28.5104
lfoot -18.431 17.1347
ltoes -25.7785
532
root 7.91596 15.6952 39.1214 113.109 -83.1723 -100.628
lowerback -9.5996 2.37386 4.77765
upperback -8.90313 2.43758 0.518563
thorax -3.74902 0.806241 -1.9664
lowerneck 19.905 -8.37143 -32.0705
upperneck -4.65462 -19.6304 40.5823
head 3.46367 -12.4204 20.752
rclavicle -2.67365e-014 -1.39149e-014
rhumerus -45.2958 -22.4503 -75.1542
rradius 21.5123
rwrist 28.1354
rhand -1.54939 -2.43464
rfingers 7.12502
rthumb 24.1055 -30.9404
lclavicle -2.67365e-014 -1.39149e-014
lhumerus -46.9562 -23.0195 109.355
lradius 36.9337
lwrist 24.6752
lhand 7.45939 -11.7328
lfingers 7.12502
lthumb 32.7129 15.3276
rfemur -26.6261 -8.45575 26.9728
rtibia 29.1644
rfoot -14.1834 32.9126
rtoes 5.24841
lfemur -16.8779 8.3803 -16.8404
ltibia 28.4818
lfoot -18.4266 17.5385
ltoes -25.5883
533
root 7.90772 15.6917 39.1306 113.989 -83.1527 -101.63
lowerback -9.61021 2.3543 4.88471
upperback -8.86947 2.40433 0.536437
thorax -3.7071 0.78641 -2.00892
lowerneck 19.8207 -8.32497 -32.08
upperneck -4.60423 -19.5369 40.5165
head 3.44151 -12.3579 20.7292
rclavicle -1.88845e-014 7.55382e-015
rhumerus -44.9277 -21.4414 -75.7681
rradius 21.749
rwrist 27.6411
rhand -1.01625 -1.86357
rfingers 7.12502
rthumb 24.6166 -30.3006
lclavicle -1.88845e-014 7.55382e-015
lhumerus -47.5698 -24.7042 110.452
lradius 37.5021
lwrist 24.6285
lhand 8.83472 -12.0621
lfingers 7.12502
lthumb 34.0203 14.7171
rfemur -26.5164 -8.54932 26.9083
rtibia 29.2084
rfoot -14.1377 33.1467
rtoes 5.44135
lfemur -16.6723 8.0384 -16.8849
ltibia 28.4648
lfoot -18.4482 17.952
ltoes -25.355
534
root 7.89806 15.6887 39.1401 114.483 -83.1117 -102.217
lowerback -9.67403 2.32814 5.01876
upperback -8.83648 2.35623 0.567395
thorax -3.63774 0.758387 -2.05229
lowerneck 19.7396 -8.27794 -32.0863
upperneck -4.55679 -19.4419 40.4516
head 3.41717 -12.295 20.707
rclavicle -7.15625e-015 -3.57812e-015
rhumerus -44.4989 -20.2709 -76.4296
rradius 21.9489
rwrist 27.1403
rhand -1.31753 -1.3407
rfingers 7.12502
rthumb 24.3278 -29.8168
lclavicle -7.15625e-015 -3.57812e-015
lhumerus -48.2181 -26.3216 111.546
lradius 38.0706
lwrist 24.7287
lhand 9.65975 -12.2765
lfingers 7.12502
lthumb 34.8036 14.3252
rfemur -26.4154 -8.69677 26.8894
rtibia 29.2284
rfoot -14.0896 33.4015
rtoes 5.65185
lfemur -16.5055 7.74917 -16.8972
ltibia 28.4592
lfoot -18.4944 18.2804
ltoes -25.1193
535
root 7.88777 15.6865 39.1489 114.585 -83.0725 -102.373
lowerback -9.79149 2.29058 5.14563
upperback -8.80999 2.2886 0.60779
thorax -3.5482 0.721114 -2.08183
lowerneck 19.663 -8.23118 -32.0949
upperneck -4.51489 -19.3478 40.3891
head 3.39181 -12.2331 20.6868
rclavicle 7.15625e-015 1.43125e-014
rhumerus -44.0498 -19.0041 -77.0903
rradius 22.1464
rwrist 26.7153
rhand -2.19507 -0.849291
rfingers 7.12502
rthumb 23.4863 -29.4356
lclavicle 7.15625e-015 1.43125e-014
lhumerus -48.8949 -27.8616 112.631
lradius 38.628
lwrist 24.9558
lhand 9.94355 -12.3702
lfingers 7.12502
lthumb 35.0728 14.1688
rfemur -26.3391 -8.88505 26.8988
rtibia 29.2282
rfoot -14.0308 33.6594
rtoes 5.89929
lfemur -16.3948 7.552 -16.8946
ltibia 28.4608
lfoot -18.5531 18.4837
ltoes -24.9339
536
root 7.87756 15.6852 39.156 114.344 -83.0409 -102.144
lowerback -9.95189 2.23796 5.24228
upperback -8.79263 2.19875 0.66094
thorax -3.44809 0.674208 -2.08204
lowerneck 19.588 -8.18459 -32.11
upperneck -4.4757 -19.256 40.3303
head 3.36802 -12.1729 20.6698
rclavicle 8.15017e-015 -1.98785e-015
rhumerus -43.6264 -17.8321 -77.6435
rradius 22.3421
rwrist 26.6022
rhand -3.26325 -0.347967
rfingers 7.12502
rthumb 22.4613 -29.0618
lclavicle 8.15017e-015 -1.98785e-015
lhumerus -49.5805 -29.2943 113.686
lradius 39.1525
lwrist 25.2688
lhand 9.74489 -12.3738
lfingers 7.12502
lthumb 34.8843 14.2092
rfemur -26.2925 -9.09583 26.9335
rtibia 29.2128
rfoot -13.9862 33.8893
rtoes 6.12225
lfemur -16.3427 7.47922 -16.8795
ltibia 28.4663
lfoot -18.6177 18.5347
ltoes -24.8099
